<svg width="68" height="68" viewBox="0 0 68 68" fill="none" xmlns="http://www.w3.org/2000/svg">
    <mask id="mask0_203_195" style="mask-type:luminance" maskUnits="userSpaceOnUse" x="0" y="0" width="68" height="68">
        <path d="M0 0H68V68H0V0Z" fill="white"/>
    </mask>
    <g mask="url(#mask0_203_195)">
        <mask id="mask1_203_195" style="mask-type:luminance" maskUnits="userSpaceOnUse" x="0" y="0" width="68"
              height="68">
            <path d="M33.9955 0C15.217 0 0 15.226 0 34.0045C0 52.783 15.217 68 33.9955 68C52.774 68 68 52.783 68 34.0045C68 15.226 52.774 0 33.9955 0Z"
                  fill="white"/>
        </mask>
        <g mask="url(#mask1_203_195)">
            <path d="M0 0H68V68H0V0Z" fill="#6432F4"/>
        </g>
    </g>
    <path d="M34.2841 5.94479C18.5724 5.94479 5.82861 18.6796 5.82861 34.3913C5.82861 47.0542 14.1026 57.7834 25.5334 61.4708L26.0281 45.0216C22.2328 45.0216 22.3047 37.7189 22.3047 37.7189V20.955C22.3047 20.5593 22.6465 20.2445 23.0692 20.2445C23.4919 20.2445 23.8426 20.5593 23.8426 20.955V33.8517H25.6503V20.955C25.6503 20.5593 25.9921 20.2445 26.4148 20.2445C26.8375 20.2445 27.1882 20.5593 27.1882 20.955V33.8517H28.9959V20.955C28.9959 20.5593 29.3377 20.2445 29.7604 20.2445C30.1831 20.2445 30.5338 20.5593 30.5338 20.955V33.8517H32.3325V20.955C32.3325 20.5593 32.6833 20.2445 33.106 20.2445C33.5287 20.2445 33.8704 20.5593 33.8704 20.955V37.7189C33.8704 37.7189 33.9513 45.0216 30.1471 45.0216L30.6957 62.6219C31.8738 62.7658 33.07 62.8468 34.2841 62.8468C36.6764 62.8468 39.0057 62.55 41.2271 61.9924L41.8926 49.9411H39.5093C39.5093 49.9411 33.2499 35.5335 42.8819 20.2445H43.9791L45.7688 60.4365C55.7606 56.0207 62.7306 46.0199 62.7306 34.3913C62.7306 18.6796 49.9958 5.94479 34.2841 5.94479Z"
          fill="white"/>
</svg>
