<svg width="20" height="16" viewBox="0 0 20 16" fill="none" xmlns="http://www.w3.org/2000/svg">
<path d="M8.86697 15.1003C8.59907 15.3562 8.23577 15.5 7.85696 15.5C7.47815 15.5 7.11484 15.3562 6.84694 15.1003L0.418272 8.95695C0.150452 8.70094 -7.10588e-07 8.35376 -7.10588e-07 7.99176C-7.10588e-07 7.62976 0.150452 7.28258 0.418272 7.02657L6.84694 0.883225C7.11638 0.634545 7.47724 0.496942 7.85182 0.500053C8.22639 0.503163 8.5847 0.646738 8.84957 0.899855C9.11444 1.15297 9.26469 1.49538 9.26794 1.85333C9.2712 2.21127 9.1272 2.55612 8.86697 2.8136L4.99977 6.62657L18.5714 6.62657C18.9503 6.62657 19.3137 6.7704 19.5816 7.02642C19.8495 7.28245 20 7.62969 20 7.99176C20 8.35383 19.8495 8.70107 19.5816 8.95709C19.3137 9.21311 18.9503 9.35695 18.5714 9.35695L4.99977 9.35695L8.86697 13.1699C9.13479 13.4259 9.28525 13.7731 9.28525 14.1351C9.28525 14.4971 9.13479 14.8443 8.86697 15.1003Z" fill="black"/>
</svg>
