<svg xmlns="http://www.w3.org/2000/svg" width="15" height="16" viewBox="0 0 15 16" fill="none">
    <path d="M12.6923 0.5H2.30769C1.69586 0.500668 1.10928 0.744014 0.676645 1.17665C0.244014 1.60928 0.000668097 2.19586 0 2.80769V13.1923C0.000668097 13.8041 0.244014 14.3907 0.676645 14.8234C1.10928 15.256 1.69586 15.4993 2.30769 15.5H12.6923C13.3041 15.4993 13.8907 15.256 14.3234 14.8234C14.756 14.3907 14.9993 13.8041 15 13.1923V2.80769C14.9993 2.19586 14.756 1.60928 14.3234 1.17665C13.8907 0.744014 13.3041 0.500668 12.6923 0.5ZM11.4032 5.48642L6.55709 11.2556C6.50393 11.319 6.43779 11.3701 6.36313 11.4056C6.28848 11.4412 6.20706 11.4602 6.1244 11.4615H6.11466C6.0338 11.4615 5.95384 11.4445 5.87999 11.4116C5.80613 11.3786 5.74002 11.3306 5.68594 11.2704L3.60901 8.96274C3.55627 8.9068 3.51524 8.84087 3.48833 8.76884C3.46143 8.69681 3.44919 8.62013 3.45235 8.54331C3.4555 8.46648 3.47398 8.39106 3.50669 8.32148C3.53941 8.2519 3.58571 8.18956 3.64286 8.13813C3.70002 8.08669 3.76687 8.0472 3.83951 8.02198C3.91214 7.99675 3.98909 7.9863 4.06582 7.99124C4.14255 7.99617 4.21752 8.0164 4.28632 8.05072C4.35512 8.08504 4.41637 8.13277 4.46647 8.19111L6.09952 10.0055L10.5198 4.74435C10.619 4.62972 10.7593 4.5587 10.9104 4.54666C11.0614 4.53462 11.2112 4.58253 11.3273 4.68001C11.4433 4.7775 11.5163 4.91674 11.5306 5.06764C11.5448 5.21853 11.499 5.36897 11.4032 5.48642Z"
          fill="#2400A4" style="fill:#2400A4;fill:color(display-p3 0.1412 0.0000 0.6431);fill-opacity:1;"/>
</svg>